<svg width="24" height="24" viewBox="0 0 24 24" fill="none" xmlns="http://www.w3.org/2000/svg">
<path d="M6.49048 2.85986H16.1301C17.9827 2.85986 19.4915 4.37519 19.5002 6.22217V20.3101C19.5002 21.1058 19.2203 21.5464 18.9036 21.7329C18.587 21.9191 18.0673 21.9495 17.3733 21.563L12.4934 18.853C12.1448 18.656 11.7177 18.5728 11.3186 18.5728C10.9676 18.5728 10.5952 18.6369 10.2717 18.7847L10.137 18.853L5.25903 21.562C4.56538 21.9439 4.04482 21.9123 3.72681 21.7251C3.40921 21.5381 3.13017 21.0995 3.13013 20.3101V6.22021C3.13013 4.37551 4.63746 2.85986 6.49048 2.85986ZM11.9045 7.52783C10.8918 7.50402 9.88929 7.5202 9.19751 7.62646C9.02229 7.65338 8.85624 7.68738 8.70923 7.73193C8.56811 7.77473 8.41363 7.83704 8.28345 7.93311C8.22937 7.97302 8.17042 8.02515 8.11938 8.09131C8.05523 8.10767 7.97442 8.13238 7.91333 8.1665C7.74981 8.36886 7.747 8.76585 7.82153 8.88916C7.85583 8.92673 7.91241 8.97523 7.93188 8.98877C7.94327 8.99607 7.9624 9.00706 7.96997 9.01123C7.98383 9.01871 7.99505 9.02395 7.99927 9.02588C8.00881 9.03024 8.01662 9.03378 8.0188 9.03467C8.03086 9.03959 8.04461 9.04486 8.04614 9.04541C8.05842 9.04987 8.07908 9.05675 8.10767 9.06689C8.15061 9.08214 8.21487 9.10429 8.30298 9.13525C8.33389 9.14629 8.36693 9.15796 8.40161 9.17041L8.44556 9.18604L8.49146 9.19385H8.49243H8.49536C8.49741 9.19417 8.50039 9.19521 8.50415 9.1958C8.51163 9.19697 8.52244 9.19856 8.53638 9.20068C8.56459 9.20498 8.60593 9.21071 8.65845 9.21826C8.76367 9.2334 8.91551 9.25473 9.10181 9.27783C9.4739 9.32397 9.9877 9.37947 10.554 9.4165C11.1192 9.45347 11.7442 9.47224 12.3362 9.44385C12.9204 9.41582 13.5068 9.33933 13.9788 9.16943C14.1118 9.12167 14.2544 9.19171 14.3 9.31885C14.3477 9.45175 14.2785 9.59343 14.1516 9.63916H14.1506C13.2343 9.96981 12.2711 10.1401 11.3098 10.1401L11.0891 11.0884C12.2783 11.675 13.3093 11.8609 14.1799 11.7661C15.054 11.6708 15.7337 11.2954 16.2141 10.8179C16.6875 10.3472 16.9722 9.77296 17.0627 9.26318C17.1077 9.01022 17.1104 8.74329 17.0364 8.50244C16.9604 8.25517 16.7886 8.00061 16.4797 7.88916H16.4788C16.4003 7.86101 16.2937 7.84434 16.2229 7.8335C16.1317 7.81955 16.0149 7.80429 15.8792 7.78857C15.6068 7.75703 15.2439 7.72154 14.8264 7.68701C13.9917 7.61798 12.9263 7.55186 11.9045 7.52783ZM15.1067 8.71533C15.3625 8.73864 15.5853 8.76105 15.7639 8.78174C15.8936 8.79676 15.9971 8.81039 16.0715 8.82178C16.0756 8.82239 16.0795 8.82217 16.0833 8.82275C16.0932 8.8743 16.1008 8.96235 16.0784 9.08838C16.0256 9.38559 15.844 9.77593 15.509 10.1089C15.1808 10.4351 14.7084 10.7026 14.0715 10.772C13.9962 10.7802 13.9181 10.7842 13.8372 10.7866C13.9261 10.7616 14.0155 10.7381 14.1038 10.7104L14.4895 10.5806C15.1422 10.3461 15.4727 9.62781 15.2405 8.98096C15.206 8.88499 15.1603 8.79662 15.1067 8.71533Z" fill="#FDFDFD" stroke="#FDFDFD"/>
</svg>
